<svg width="30" height="31" viewBox="0 0 30 31" fill="none" xmlns="http://www.w3.org/2000/svg">
<path d="M29.9987 15.5955C29.9987 6.9816 23.2835 0 14.9994 0C6.71528 0 0 6.9816 0 15.5955C0 23.3777 5.48523 29.829 12.6555 30.9987V20.1026H8.84787V15.5942H12.6555V12.1593C12.6555 8.25003 14.8956 6.09135 18.3208 6.09135C19.9621 6.09135 21.6784 6.39546 21.6784 6.39546V10.2333H19.7883C17.9257 10.2333 17.3445 11.4354 17.3445 12.6688V15.5955H21.5046L20.8396 20.1039H17.3445V31C24.5148 29.8303 30 23.379 30 15.5955H29.9987Z" fill="black"/>
</svg>
